<svg width="28" height="27" viewBox="0 0 28 27" fill="none" xmlns="http://www.w3.org/2000/svg">
<path d="M27.4725 7.91015C27.4575 6.78487 27.2465 5.67078 26.8489 4.61772C26.5042 3.72946 25.9776 2.92277 25.3029 2.24918C24.6282 1.57559 23.8201 1.04991 22.9304 0.705733C21.8891 0.31551 20.7891 0.10451 19.6771 0.0817165C18.2455 0.0178291 17.7916 0 14.1573 0C10.5231 0 10.0572 9.96275e-08 8.63598 0.0817165C7.52451 0.104677 6.42499 0.315675 5.3842 0.705733C4.49433 1.04967 3.68616 1.57526 3.01142 2.24888C2.33667 2.92251 1.81021 3.72933 1.4657 4.61772C1.07404 5.65646 0.863148 6.7544 0.84213 7.86409C0.778136 9.29487 0.758789 9.74802 0.758789 13.3762C0.758789 17.0044 0.758789 17.468 0.84213 18.8884C0.864453 19.9997 1.07429 21.0962 1.4657 22.1377C1.81078 23.0258 2.33764 23.8323 3.01261 24.5057C3.68758 25.179 4.49582 25.7044 5.38569 26.0482C6.42363 26.4541 7.52334 26.6802 8.63747 26.7168C10.0706 26.7807 10.5245 26.8 14.1588 26.8C17.793 26.8 18.2589 26.8 19.6801 26.7168C20.792 26.6949 21.8922 26.4844 22.9334 26.0943C23.8229 25.7497 24.6307 25.2239 25.3054 24.5503C25.98 23.8768 26.5067 23.0703 26.8519 22.1823C27.2433 21.1423 27.4531 20.0458 27.4754 18.9329C27.5394 17.5037 27.5588 17.0505 27.5588 13.4208C27.5558 9.79259 27.5558 9.33201 27.4725 7.91015ZM14.1484 20.2374C10.3474 20.2374 7.2683 17.1634 7.2683 13.3688C7.2683 9.57419 10.3474 6.50017 14.1484 6.50017C15.9731 6.50017 17.7231 7.22383 19.0133 8.51194C20.3036 9.80006 21.0284 11.5471 21.0284 13.3688C21.0284 15.1905 20.3036 16.9375 19.0133 18.2257C17.7231 19.5138 15.9731 20.2374 14.1484 20.2374ZM21.3023 7.84774C21.0915 7.84794 20.8828 7.80665 20.6881 7.72623C20.4934 7.6458 20.3164 7.52784 20.1674 7.37907C20.0184 7.23031 19.9002 7.05366 19.8197 6.85926C19.7391 6.66485 19.6978 6.45649 19.698 6.2461C19.698 6.03587 19.7394 5.8277 19.82 5.63347C19.9006 5.43924 20.0187 5.26275 20.1676 5.1141C20.3166 4.96544 20.4933 4.84752 20.6879 4.76707C20.8824 4.68661 21.091 4.64521 21.3015 4.64521C21.5121 4.64521 21.7206 4.68661 21.9152 4.76707C22.1097 4.84752 22.2865 4.96544 22.4354 5.1141C22.5843 5.26275 22.7025 5.43924 22.783 5.63347C22.8636 5.8277 22.9051 6.03587 22.9051 6.2461C22.9051 7.13161 22.1878 7.84774 21.3023 7.84774Z" fill="#5CA7FF"/>
<path d="M14.721 18.1539C17.036 18.1539 18.9127 16.2772 18.9127 13.9622C18.9127 11.6472 17.036 9.77051 14.721 9.77051C12.406 9.77051 10.5293 11.6472 10.5293 13.9622C10.5293 16.2772 12.406 18.1539 14.721 18.1539Z" fill="#5CA7FF"/>
</svg>
