<svg width="122" height="122" viewBox="0 0 122 122" fill="none" xmlns="http://www.w3.org/2000/svg">
<path d="M0.220552 77.2905C0.641384 78.8326 1.64998 80.1483 3.02985 80.9552L14.6945 87.7349V101.172C14.6945 102.792 15.338 104.346 16.4833 105.491C17.6286 106.637 19.182 107.28 20.8017 107.28H34.2375L41.0165 118.946C41.5493 119.869 42.3145 120.637 43.2359 121.173C44.1573 121.708 45.2029 121.994 46.2686 122C47.3648 122 48.4406 121.704 49.3833 121.145L60.9869 114.426L72.6516 121.145C73.345 121.551 74.1118 121.817 74.908 121.926C75.7042 122.036 76.5141 121.987 77.2914 121.782C78.0687 121.578 78.798 121.223 79.4376 120.736C80.0772 120.249 80.6144 119.641 81.0184 118.946L87.7363 107.28H101.172C102.792 107.28 104.345 106.637 105.491 105.491C106.636 104.346 107.279 102.792 107.279 101.172V87.7349L118.944 80.9552C120.341 80.1494 121.362 78.8238 121.786 77.2676C122.209 75.7114 122 74.051 121.204 72.6485L114.425 60.9214L121.204 49.2554C122 47.8529 122.209 46.1924 121.786 44.6362C121.362 43.08 120.341 41.7544 118.944 40.9487L107.279 34.23V20.7927C107.279 19.1728 106.636 17.6193 105.491 16.4738C104.345 15.3284 102.792 14.6849 101.172 14.6849H87.7363L81.0184 3.01887C80.1974 1.62612 78.8577 0.615757 77.2931 0.209249C76.5173 0.000757102 75.708 -0.0526125 74.9115 0.0521963C74.115 0.157005 73.3471 0.417934 72.6516 0.820036L60.9258 7.53868L49.3222 0.820036C47.9273 0.0186125 46.2725 -0.19999 44.7173 0.211716C43.1622 0.623422 41.8323 1.63218 41.0165 3.01887L34.2375 14.6849H20.8017C19.182 14.6849 17.6286 15.3284 16.4833 16.4738C15.338 17.6193 14.6945 19.1728 14.6945 20.7927V34.23L3.09092 40.9487C2.39112 41.3477 1.77716 41.8813 1.28441 42.5186C0.791654 43.1559 0.429842 43.8845 0.219809 44.6622C0.00977635 45.44 -0.0443269 46.2517 0.0606146 47.0504C0.165556 47.8492 0.427469 48.6193 0.83127 49.3165L7.54916 60.9214L0.83127 72.5874C0.421083 73.291 0.155742 74.0696 0.0508604 74.8772C-0.0540211 75.6849 0.0036739 76.5054 0.220552 77.2905ZM19.8856 57.9285L14.4503 48.7057L23.9164 43.2086C24.828 42.668 25.5833 41.8994 26.108 40.9785C26.6327 40.0575 26.9087 39.0158 26.9089 37.9558V26.9006H37.7797C38.8558 26.9049 39.914 26.6247 40.847 26.0884C41.7801 25.5521 42.5548 24.7788 43.0929 23.8467L48.7115 14.4406L58.1165 19.8766C59.045 20.4126 60.0981 20.6949 61.1701 20.6949C62.2422 20.6949 63.2953 20.4126 64.2237 19.8766L73.6898 14.4406L79.2474 23.8467C79.7854 24.7788 80.5602 25.5521 81.4933 26.0884C82.4263 26.6247 83.4845 26.9049 84.5606 26.9006H95.3703V37.7726C95.3767 38.8385 95.662 39.8842 96.1977 40.8057C96.7334 41.7272 97.5009 42.4924 98.4239 43.0254L107.829 48.5224L102.394 57.9285C101.858 58.8571 101.575 59.9103 101.575 60.9825C101.575 62.0546 101.858 63.1079 102.394 64.0364L107.829 73.4425L98.4239 78.9396C97.5009 79.4725 96.7334 80.2378 96.1977 81.1593C95.662 82.0808 95.3767 83.1264 95.3703 84.1924V95.0643H84.1942C83.1284 95.0708 82.0828 95.356 81.1614 95.8918C80.2401 96.4276 79.4749 97.1951 78.942 98.1183L73.5066 107.524L64.0405 102.088C63.1121 101.552 62.059 101.27 60.9869 101.27C59.9149 101.27 58.8617 101.552 57.9333 102.088L48.7115 107.524L43.2761 98.1183C42.738 97.1862 41.9633 96.4128 41.0302 95.8766C40.0972 95.3403 39.039 95.0601 37.9629 95.0643H26.9089V84.1924C26.8575 83.1847 26.5573 82.2054 26.0351 81.3421C25.5129 80.4788 24.785 79.7583 23.9164 79.245L14.4503 73.7479L19.8856 64.3418C20.4802 63.3779 20.795 62.2677 20.795 61.1352C20.795 60.0027 20.4802 58.8924 19.8856 57.9285Z" fill="#C4C4C4"/>
</svg>
